<svg width="51" height="37" viewBox="0 0 51 37" fill="none" xmlns="http://www.w3.org/2000/svg">
<path fill-rule="evenodd" clip-rule="evenodd" d="M31.3754 36.4749C41.4477 36.4749 49.6129 28.3097 49.6129 18.2375C49.6129 8.16519 41.4477 0 31.3754 0C26.98 0 22.9478 1.55492 19.7988 4.14469C22.4128 2.50053 25.5126 1.54857 28.8365 1.54857C38.1728 1.54857 45.7414 9.0594 45.7414 18.3245C45.7414 27.5896 38.1728 35.1004 28.8365 35.1004C25.904 35.1004 23.1459 34.3594 20.7419 33.0558C23.7354 35.2077 27.4074 36.4749 31.3754 36.4749Z" fill="white"/>
<path fill-rule="evenodd" clip-rule="evenodd" d="M41.1249 31.9911C44.5095 29.2216 46.8612 25.1828 47.399 20.4948C48.4658 11.1954 42.0019 2.76758 32.8486 1.30749C33.1034 1.3253 33.359 1.34885 33.6152 1.37824C42.8907 2.4423 49.554 10.7668 48.4981 19.9715C47.9145 25.0583 45.0957 29.3493 41.1249 31.9911Z" fill="#103C5F"/>
<path d="M11.27 29L11.095 28.93C9.95167 28.4633 8.79667 28.4167 7.63 28.79C7.14 28.93 6.63833 29 6.125 29C5.425 29 4.76 28.8717 4.13 28.615C3.5 28.335 2.94 27.9617 2.45 27.495C1.98333 27.0283 1.61 26.48 1.33 25.85C1.07333 25.22 0.945 24.555 0.945 23.855C0.945 23.1783 1.10833 22.56 1.435 22C1.76167 21.4167 2.21667 20.9617 2.8 20.635L9.03 17.065V15.07C9.03 14.65 8.94833 14.265 8.785 13.915C8.62167 13.5417 8.4 13.2267 8.12 12.97C7.86333 12.7133 7.54833 12.515 7.175 12.375C6.825 12.2117 6.44 12.1417 6.02 12.165C5.22667 12.2117 4.56167 12.515 4.025 13.075C3.48833 13.635 3.22 14.3117 3.22 15.105C3.22 15.805 3.47667 16.435 3.99 16.995L4.34 17.345H3.22H0.945V16.68C0.945 15.9567 1.07333 15.28 1.33 14.65C1.61 14.02 1.98333 13.4717 2.45 13.005C2.94 12.5383 3.5 12.1767 4.13 11.92C4.76 11.64 5.425 11.5 6.125 11.5C6.825 11.5 7.49 11.64 8.12 11.92C8.75 12.1767 9.29833 12.5383 9.765 13.005C10.2317 13.4717 10.5933 14.02 10.85 14.65C11.13 15.28 11.27 15.9567 11.27 16.68V29ZM6.16 28.335C6.97667 28.3117 7.65333 28.02 8.19 27.46C8.75 26.9 9.03 26.2117 9.03 25.395V19.655L5.075 21.965C4.49167 22.2917 4.03667 22.735 3.71 23.295C3.38333 23.855 3.22 24.4733 3.22 25.15V25.43C3.22 26.2467 3.5 26.9467 4.06 27.53C4.64333 28.09 5.34333 28.3583 6.16 28.335ZM13.9847 14.23C13.9847 13.1567 13.6114 12.2467 12.8647 11.5H16.2597V29H13.9847V14.23ZM16.3297 9.015C16.143 9.155 15.9797 9.30667 15.8397 9.47C15.6997 9.61 15.5597 9.76167 15.4197 9.925L15.1397 10.31L14.8247 9.925C14.6847 9.76167 14.5447 9.61 14.4047 9.47C14.2647 9.30667 14.1014 9.155 13.9147 9.015L13.5297 8.735L13.9147 8.42C14.1014 8.30333 14.2647 8.175 14.4047 8.035C14.5447 7.87167 14.6847 7.69667 14.8247 7.51L15.1397 7.125L15.4197 7.51C15.5597 7.69667 15.6997 7.87167 15.8397 8.035C15.9797 8.175 16.143 8.30333 16.3297 8.42L16.7147 8.735L16.3297 9.015ZM21.4566 25.43C21.4566 26.2467 21.7366 26.935 22.2966 27.495C22.8566 28.055 23.545 28.335 24.3616 28.335V29C23.6616 29 22.9966 28.8717 22.3666 28.615C21.7366 28.335 21.1883 27.9617 20.7216 27.495C20.255 27.0283 19.8816 26.48 19.6016 25.85C19.345 25.22 19.2166 24.555 19.2166 23.855V9.855C19.2166 8.805 18.8316 7.895 18.0616 7.125H21.4566V25.43ZM34.3071 29L34.1321 28.93C32.9888 28.4633 31.8338 28.4167 30.6671 28.79C30.1771 28.93 29.6754 29 29.1621 29C28.4621 29 27.7971 28.8717 27.1671 28.615C26.5371 28.335 25.9771 27.9617 25.4871 27.495C25.0204 27.0283 24.6471 26.48 24.3671 25.85C24.1104 25.22 23.9821 24.555 23.9821 23.855C23.9821 23.1783 24.1454 22.56 24.4721 22C24.7988 21.4167 25.2538 20.9617 25.8371 20.635L32.0671 17.065V15.07C32.0671 14.65 31.9854 14.265 31.8221 13.915C31.6588 13.5417 31.4371 13.2267 31.1571 12.97C30.9004 12.7133 30.5854 12.515 30.2121 12.375C29.8621 12.2117 29.4771 12.1417 29.0571 12.165C28.2638 12.2117 27.5988 12.515 27.0621 13.075C26.5254 13.635 26.2571 14.3117 26.2571 15.105C26.2571 15.805 26.5138 16.435 27.0271 16.995L27.3771 17.345H26.2571H23.9821V16.68C23.9821 15.9567 24.1104 15.28 24.3671 14.65C24.6471 14.02 25.0204 13.4717 25.4871 13.005C25.9771 12.5383 26.5371 12.1767 27.1671 11.92C27.7971 11.64 28.4621 11.5 29.1621 11.5C29.8621 11.5 30.5271 11.64 31.1571 11.92C31.7871 12.1767 32.3354 12.5383 32.8021 13.005C33.2688 13.4717 33.6304 14.02 33.8871 14.65C34.1671 15.28 34.3071 15.9567 34.3071 16.68V29ZM29.1971 28.335C30.0138 28.3117 30.6904 28.02 31.2271 27.46C31.7871 26.9 32.0671 26.2117 32.0671 25.395V19.655L28.1121 21.965C27.5288 22.2917 27.0738 22.735 26.7471 23.295C26.4204 23.855 26.2571 24.4733 26.2571 25.15V25.43C26.2571 26.2467 26.5371 26.9467 27.0971 27.53C27.6804 28.09 28.3804 28.3583 29.1971 28.335Z" fill="white"/>
</svg>
